<?xml version="1.0" encoding="iso-8859-1"?>
<!-- Generator: Adobe Illustrator 16.0.0, SVG Export Plug-In . SVG Version: 6.00 Build 0)  -->
<!DOCTYPE svg PUBLIC "-//W3C//DTD SVG 1.1//EN" "http://www.w3.org/Graphics/SVG/1.1/DTD/svg11.dtd">
<svg version="1.1" id="Capa_1" xmlns="http://www.w3.org/2000/svg" xmlns:xlink="http://www.w3.org/1999/xlink" x="0px" y="0px"
	 width="32px" height="32px" viewBox="0 0 32 32" style="enable-background:new 0 0 32 32;" xml:space="preserve">
<g>
	<path d="M28.193,13.865c0.543,0.045,1.178,0.181,1.676,0.136c1.133-0.136,2.175-1.223,2.129-2.311c0-0.498-0.181-1.042-0.589-1.313
		c-0.408-0.317-1.178-0.136-1.541-0.317c-0.679-0.362-0.09-0.544,0.317-0.996c0.407-0.453,0.634-0.952,0.86-1.541
		c0.362-1.087,0.771-2.537-0.045-3.533c-1.631-1.993-5.119-0.091-6.613,1.133c-2.13,1.767-4.35,3.715-5.572,6.251
		c-0.525,1.05-0.747,2.385-1.209,3.545c-0.367-0.704-1.347-0.315-1.417-0.621c-0.084-0.369,0.425-1.086,0.43-1.093
		c0.222-0.31,0.348-0.729,0.324-1.182c-0.034-0.604-0.33-1.112-0.738-1.373c1.062-1.604,3.211-4.03,5.299-5.828
		c0.746-0.643,0.979-1.455,0.653-2.29c-0.42-1.078-1.711-1.926-2.878-1.888c-0.916,0.034-1.611,0.585-1.939,1.56
		c-0.049,0.1-0.083,0.208-0.075,0.326c0.021,0.367,0.334,0.647,0.7,0.628c0.367-0.021,0.648-0.334,0.629-0.701
		c-0.018-0.307-0.244-0.542-0.531-0.604c0.345-0.544,0.827-0.701,1.232-0.7c0.951-0.031,2.044,0.687,2.387,1.564
		c0.17,0.437,0.219,1.09-0.512,1.72c-1.133,0.975-4.127,3.9-5.469,6.036c-0.047-0.004-0.094-0.011-0.141-0.011
		c-1.575-1.971-4.861-4.537-6.09-5.379c-0.795-0.545-0.818-1.2-0.698-1.652c0.244-0.911,1.25-1.744,2.199-1.818
		c0.404-0.046,0.9,0.058,1.303,0.561c-0.279,0.093-0.478,0.351-0.46,0.658c0.02,0.366,0.334,0.647,0.701,0.627
		c0.367-0.02,0.647-0.334,0.627-0.7c-0.006-0.119-0.052-0.224-0.111-0.316c-0.433-0.934-1.185-1.403-2.099-1.337
		c-1.162,0.09-2.351,1.074-2.65,2.191C8.05,4.163,8.372,4.946,9.185,5.502c2.23,1.527,4.587,3.648,5.838,5.124
		c-0.451,0.276-0.745,0.87-0.708,1.541c0.025,0.453,0.197,0.854,0.453,1.138c0.002,0.004,0.531,0.745,0.442,1.138
		c-0.058,0.257-0.555,0.254-0.868,0.729c-0.428-1.128-0.652-2.4-1.157-3.409c-1.223-2.537-3.443-4.485-5.572-6.252
		C6.118,4.287,2.629,2.384,0.999,4.377C0.184,5.374,0.59,6.824,0.954,7.911c0.227,0.59,0.453,1.088,0.861,1.541
		s0.996,0.633,0.317,0.996c-0.363,0.182-1.133,0-1.541,0.317c-0.408,0.271-0.589,0.815-0.589,1.313
		c-0.045,1.088,0.997,2.175,2.129,2.311c0.498,0.046,1.132-0.091,1.676-0.136c0.68-0.045,1.224,0.227,0.363,0.725
		c-1.087,0.68-2.628,0.046-2.537,1.903c0.091,1.269,0.362,2.491,1.45,3.307c1.088,0.816,1.993,0.636,3.262,0.317
		c1.042-0.228,2.039-0.589,3.035-0.906c0.291-0.102,0.593-0.199,0.896-0.3c-0.335,0.148-0.657,0.326-0.941,0.571
		c-0.906,0.771-1.586,1.812-2.311,2.719c-0.815,0.906-1.767,1.948-2.356,2.99c-0.271,0.452-0.453,1.042-0.271,1.54
		c0.226,0.634,0.906,0.814,1.178,1.403c0.408,0.951-0.408,2.537,1.087,2.81c0.997,0.182,2.401-0.681,3.216-1.178
		c0.543-0.317,0.951-0.59,1.631-0.726c0.543-0.091,1.042-0.046,1.495-0.408c0.906-0.589,0.815-1.767,0.861-2.764
		c0.045-1.631-0.181-3.488,0.362-5.028c0.082-0.245,0.194-0.493,0.319-0.74c0.101,0.655,0.221,1.342,0.36,2.024
		c0.583,2.854,1.507,6.905,1.767,8.821c-0.083-1.49,0.37-6.064,0.687-9.298c0.061-0.614,0.113-1.226,0.159-1.812
		c0.1,0.206,0.188,0.411,0.256,0.615c0.543,1.54,0.316,3.396,0.362,5.028c0.045,0.997-0.046,2.175,0.86,2.764
		c0.453,0.362,0.952,0.317,1.495,0.408c0.68,0.136,1.087,0.407,1.631,0.725c0.815,0.498,2.22,1.359,3.216,1.178
		c1.495-0.271,0.681-1.856,1.087-2.809c0.272-0.589,0.951-0.771,1.179-1.404c0.181-0.499,0-1.088-0.271-1.541
		c-0.589-1.042-1.541-2.084-2.355-2.988c-0.726-0.906-1.404-1.948-2.312-2.72c-0.284-0.245-0.604-0.423-0.94-0.57
		c0.303,0.101,0.604,0.197,0.896,0.3c0.997,0.316,1.993,0.68,3.035,0.906c1.269,0.315,2.174,0.498,3.262-0.317
		s1.359-2.039,1.45-3.307c0.09-1.857-1.45-1.224-2.537-1.903C26.971,14.091,27.515,13.819,28.193,13.865z M12.505,18.33
		c0.057-0.028,0.113-0.058,0.159-0.086c-0.272,0.206-0.58,0.358-0.905,0.49C12.021,18.616,12.272,18.481,12.505,18.33z
		 M19.336,17.855c0.046,0.028,0.103,0.059,0.159,0.086c0.233,0.151,0.484,0.284,0.746,0.405
		C19.916,18.215,19.608,18.062,19.336,17.855z"/>
</g>
<g>
</g>
<g>
</g>
<g>
</g>
<g>
</g>
<g>
</g>
<g>
</g>
<g>
</g>
<g>
</g>
<g>
</g>
<g>
</g>
<g>
</g>
<g>
</g>
<g>
</g>
<g>
</g>
<g>
</g>
</svg>
